<?xml version="1.0" encoding="UTF-8" standalone="no"?>
<!DOCTYPE svg PUBLIC "-//W3C//DTD SVG 1.1//EN"
 "http://www.w3.org/Graphics/SVG/1.1/DTD/svg11.dtd">
<!-- Generated by graphviz version 14.1.2 (20260124.0452)
 -->
<!-- Title: global_orchestrator Pages: 1 -->
<svg width="1801pt" height="152pt"
 viewBox="0.00 0.00 1801.00 152.00" xmlns="http://www.w3.org/2000/svg" xmlns:xlink="http://www.w3.org/1999/xlink">
<g id="graph0" class="graph" transform="scale(1 1) rotate(0) translate(4 148)">
<title>global_orchestrator</title>
<polygon fill="white" stroke="none" points="-4,4 -4,-148 1797.36,-148 1797.36,4 -4,4"/>
<!-- input -->
<g id="node1" class="node">
<title>input</title>
<ellipse fill="lightblue" stroke="black" cx="30.41" cy="-72" rx="30.41" ry="22.63"/>
<text xml:space="preserve" text-anchor="middle" x="30.41" y="-74.5" font-family="Arial" font-size="10.00">input</text>
<text xml:space="preserve" text-anchor="middle" x="30.41" y="-62.5" font-family="Arial" font-size="10.00">[input]</text>
</g>
<!-- route -->
<g id="node2" class="node">
<title>route</title>
<polygon fill="lightyellow" stroke="black" points="158.81,-104 97.81,-72 158.81,-40 219.81,-72 158.81,-104"/>
<text xml:space="preserve" text-anchor="middle" x="158.81" y="-74.5" font-family="Arial" font-size="10.00">route</text>
<text xml:space="preserve" text-anchor="middle" x="158.81" y="-62.5" font-family="Arial" font-size="10.00">[condition]</text>
</g>
<!-- input&#45;&gt;route -->
<g id="edge1" class="edge">
<title>input&#45;&gt;route</title>
<path fill="none" stroke="black" d="M61.04,-72C68.5,-72 76.84,-72 85.41,-72"/>
<polygon fill="black" stroke="black" points="85.23,-75.5 95.23,-72 85.23,-68.5 85.23,-75.5"/>
</g>
<!-- support_subflow -->
<g id="node3" class="node">
<title>support_subflow</title>
<polygon fill="lavender" stroke="black" points="388.81,-144 305.56,-144 301.56,-140 301.56,-108 384.81,-108 388.81,-112 388.81,-144"/>
<polyline fill="none" stroke="black" points="384.81,-140 301.56,-140"/>
<polyline fill="none" stroke="black" points="384.81,-140 384.81,-108"/>
<polyline fill="none" stroke="black" points="384.81,-140 388.81,-144"/>
<text xml:space="preserve" text-anchor="middle" x="345.19" y="-128.5" font-family="Arial" font-size="10.00">support_subflow</text>
<text xml:space="preserve" text-anchor="middle" x="345.19" y="-116.5" font-family="Arial" font-size="10.00">[subgraph]</text>
</g>
<!-- route&#45;&gt;support_subflow -->
<g id="edge2" class="edge">
<title>route&#45;&gt;support_subflow</title>
<path fill="none" stroke="black" stroke-dasharray="5,2" d="M198.91,-83.45C225.53,-91.25 261.11,-101.67 290.39,-110.25"/>
<polygon fill="black" stroke="black" points="289.25,-113.56 299.83,-113.01 291.21,-106.84 289.25,-113.56"/>
<text xml:space="preserve" text-anchor="middle" x="260.31" y="-108.94" font-family="Arial" font-size="9.00">conditional</text>
</g>
<!-- sales_subflow -->
<g id="node4" class="node">
<title>sales_subflow</title>
<polygon fill="lavender" stroke="black" points="384.31,-90 310.06,-90 306.06,-86 306.06,-54 380.31,-54 384.31,-58 384.31,-90"/>
<polyline fill="none" stroke="black" points="380.31,-86 306.06,-86"/>
<polyline fill="none" stroke="black" points="380.31,-86 380.31,-54"/>
<polyline fill="none" stroke="black" points="380.31,-86 384.31,-90"/>
<text xml:space="preserve" text-anchor="middle" x="345.19" y="-74.5" font-family="Arial" font-size="10.00">sales_subflow</text>
<text xml:space="preserve" text-anchor="middle" x="345.19" y="-62.5" font-family="Arial" font-size="10.00">[subgraph]</text>
</g>
<!-- route&#45;&gt;sales_subflow -->
<g id="edge3" class="edge">
<title>route&#45;&gt;sales_subflow</title>
<path fill="none" stroke="black" stroke-dasharray="5,2" d="M220.69,-72C244.54,-72 271.56,-72 294.24,-72"/>
<polygon fill="black" stroke="black" points="294.14,-75.5 304.14,-72 294.14,-68.5 294.14,-75.5"/>
<text xml:space="preserve" text-anchor="middle" x="260.31" y="-73.95" font-family="Arial" font-size="9.00">conditional</text>
</g>
<!-- fallback_subflow -->
<g id="node5" class="node">
<title>fallback_subflow</title>
<polygon fill="lavender" stroke="black" points="389.56,-36 304.81,-36 300.81,-32 300.81,0 385.56,0 389.56,-4 389.56,-36"/>
<polyline fill="none" stroke="black" points="385.56,-32 300.81,-32"/>
<polyline fill="none" stroke="black" points="385.56,-32 385.56,0"/>
<polyline fill="none" stroke="black" points="385.56,-32 389.56,-36"/>
<text xml:space="preserve" text-anchor="middle" x="345.19" y="-20.5" font-family="Arial" font-size="10.00">fallback_subflow</text>
<text xml:space="preserve" text-anchor="middle" x="345.19" y="-8.5" font-family="Arial" font-size="10.00">[subgraph]</text>
</g>
<!-- route&#45;&gt;fallback_subflow -->
<g id="edge4" class="edge">
<title>route&#45;&gt;fallback_subflow</title>
<path fill="none" stroke="black" stroke-dasharray="5,2" d="M198.91,-60.55C225.34,-52.81 260.61,-42.48 289.78,-33.94"/>
<polygon fill="black" stroke="black" points="290.56,-37.35 299.17,-31.18 288.59,-30.64 290.56,-37.35"/>
<text xml:space="preserve" text-anchor="middle" x="260.31" y="-50.18" font-family="Arial" font-size="9.00">conditional</text>
</g>
<!-- read_file -->
<g id="node6" class="node">
<title>read_file</title>
<polygon fill="lightgray" stroke="black" points="480.56,-90 426.56,-90 426.56,-54 480.56,-54 480.56,-90"/>
<text xml:space="preserve" text-anchor="middle" x="453.56" y="-74.5" font-family="Arial" font-size="10.00">read_file</text>
<text xml:space="preserve" text-anchor="middle" x="453.56" y="-62.5" font-family="Arial" font-size="10.00">[tool]</text>
</g>
<!-- support_subflow&#45;&gt;read_file -->
<g id="edge5" class="edge">
<title>support_subflow&#45;&gt;read_file</title>
<path fill="none" stroke="black" d="M382.5,-107.57C393.35,-102.06 405.25,-96.01 416.12,-90.5"/>
<polygon fill="black" stroke="black" points="417.47,-93.74 424.8,-86.09 414.3,-87.5 417.47,-93.74"/>
</g>
<!-- sales_subflow&#45;&gt;read_file -->
<g id="edge6" class="edge">
<title>sales_subflow&#45;&gt;read_file</title>
<path fill="none" stroke="black" d="M384.59,-72C394.41,-72 404.95,-72 414.74,-72"/>
<polygon fill="black" stroke="black" points="414.68,-75.5 424.68,-72 414.68,-68.5 414.68,-75.5"/>
</g>
<!-- fallback_subflow&#45;&gt;read_file -->
<g id="edge7" class="edge">
<title>fallback_subflow&#45;&gt;read_file</title>
<path fill="none" stroke="black" d="M382.5,-36.43C393.35,-41.94 405.25,-47.99 416.12,-53.5"/>
<polygon fill="black" stroke="black" points="414.3,-56.5 424.8,-57.91 417.47,-50.26 414.3,-56.5"/>
</g>
<!-- fetch_url -->
<g id="node7" class="node">
<title>fetch_url</title>
<polygon fill="lightgray" stroke="black" points="571.56,-90 517.56,-90 517.56,-54 571.56,-54 571.56,-90"/>
<text xml:space="preserve" text-anchor="middle" x="544.56" y="-74.5" font-family="Arial" font-size="10.00">fetch_url</text>
<text xml:space="preserve" text-anchor="middle" x="544.56" y="-62.5" font-family="Arial" font-size="10.00">[tool]</text>
</g>
<!-- read_file&#45;&gt;fetch_url -->
<g id="edge8" class="edge">
<title>read_file&#45;&gt;fetch_url</title>
<path fill="none" stroke="black" d="M480.78,-72C488.68,-72 497.5,-72 505.99,-72"/>
<polygon fill="black" stroke="black" points="505.71,-75.5 515.71,-72 505.71,-68.5 505.71,-75.5"/>
</g>
<!-- validate_url -->
<g id="node8" class="node">
<title>validate_url</title>
<polygon fill="lightgray" stroke="black" points="674.06,-90 608.56,-90 608.56,-54 674.06,-54 674.06,-90"/>
<text xml:space="preserve" text-anchor="middle" x="641.31" y="-74.5" font-family="Arial" font-size="10.00">validate_url</text>
<text xml:space="preserve" text-anchor="middle" x="641.31" y="-62.5" font-family="Arial" font-size="10.00">[tool]</text>
</g>
<!-- fetch_url&#45;&gt;validate_url -->
<g id="edge9" class="edge">
<title>fetch_url&#45;&gt;validate_url</title>
<path fill="none" stroke="black" d="M571.95,-72C579.71,-72 588.4,-72 596.93,-72"/>
<polygon fill="black" stroke="black" points="596.82,-75.5 606.82,-72 596.82,-68.5 596.82,-75.5"/>
</g>
<!-- write_file -->
<g id="node9" class="node">
<title>write_file</title>
<polygon fill="lightgray" stroke="black" points="766.06,-90 711.06,-90 711.06,-54 766.06,-54 766.06,-90"/>
<text xml:space="preserve" text-anchor="middle" x="738.56" y="-74.5" font-family="Arial" font-size="10.00">write_file</text>
<text xml:space="preserve" text-anchor="middle" x="738.56" y="-62.5" font-family="Arial" font-size="10.00">[tool]</text>
</g>
<!-- validate_url&#45;&gt;write_file -->
<g id="edge10" class="edge">
<title>validate_url&#45;&gt;write_file</title>
<path fill="none" stroke="black" d="M674.56,-72C682.56,-72 691.2,-72 699.45,-72"/>
<polygon fill="black" stroke="black" points="699.22,-75.5 709.22,-72 699.22,-68.5 699.22,-75.5"/>
</g>
<!-- query_db -->
<g id="node10" class="node">
<title>query_db</title>
<polygon fill="lightgray" stroke="black" points="858.81,-90 803.06,-90 803.06,-54 858.81,-54 858.81,-90"/>
<text xml:space="preserve" text-anchor="middle" x="830.94" y="-74.5" font-family="Arial" font-size="10.00">query_db</text>
<text xml:space="preserve" text-anchor="middle" x="830.94" y="-62.5" font-family="Arial" font-size="10.00">[tool]</text>
</g>
<!-- write_file&#45;&gt;query_db -->
<g id="edge11" class="edge">
<title>write_file&#45;&gt;query_db</title>
<path fill="none" stroke="black" d="M766.19,-72C774.13,-72 783.01,-72 791.55,-72"/>
<polygon fill="black" stroke="black" points="791.36,-75.5 801.36,-72 791.36,-68.5 791.36,-75.5"/>
</g>
<!-- retry_checks -->
<g id="node11" class="node">
<title>retry_checks</title>
<polygon fill="none" stroke="black" points="1012.06,-90 939.81,-90 939.81,-54 1012.06,-54 1012.06,-90"/>
<text xml:space="preserve" text-anchor="middle" x="975.94" y="-74.5" font-family="Arial" font-size="10.00">retry_checks</text>
<text xml:space="preserve" text-anchor="middle" x="975.94" y="-62.5" font-family="Arial" font-size="10.00">[loop]</text>
</g>
<!-- query_db&#45;&gt;retry_checks -->
<g id="edge12" class="edge">
<title>query_db&#45;&gt;retry_checks</title>
<path fill="none" stroke="black" d="M859.17,-72C878.56,-72 905.11,-72 927.9,-72"/>
<polygon fill="black" stroke="black" points="927.9,-75.5 937.9,-72 927.9,-68.5 927.9,-75.5"/>
</g>
<!-- retry_checks&#45;&gt;query_db -->
<g id="edge13" class="edge">
<title>retry_checks&#45;&gt;query_db</title>
<path fill="none" stroke="black" stroke-dasharray="5,2" d="M939.45,-61.69C933.6,-60.36 927.57,-59.22 921.81,-58.5 901.97,-56.02 896.6,-55.59 876.81,-58.5 874.64,-58.82 872.42,-59.22 870.2,-59.69"/>
<polygon fill="black" stroke="black" points="869.51,-56.25 860.65,-62.06 871.19,-63.05 869.51,-56.25"/>
<text xml:space="preserve" text-anchor="middle" x="899.31" y="-60.45" font-family="Arial" font-size="9.00">conditional</text>
</g>
<!-- send_email -->
<g id="node12" class="node">
<title>send_email</title>
<polygon fill="lightgray" stroke="black" points="1114.56,-90 1049.06,-90 1049.06,-54 1114.56,-54 1114.56,-90"/>
<text xml:space="preserve" text-anchor="middle" x="1081.81" y="-74.5" font-family="Arial" font-size="10.00">send_email</text>
<text xml:space="preserve" text-anchor="middle" x="1081.81" y="-62.5" font-family="Arial" font-size="10.00">[tool]</text>
</g>
<!-- retry_checks&#45;&gt;send_email -->
<g id="edge14" class="edge">
<title>retry_checks&#45;&gt;send_email</title>
<path fill="none" stroke="black" d="M1012.39,-72C1020.38,-72 1028.95,-72 1037.23,-72"/>
<polygon fill="black" stroke="black" points="1037.14,-75.5 1047.14,-72 1037.14,-68.5 1037.14,-75.5"/>
</g>
<!-- notify_slack -->
<g id="node13" class="node">
<title>notify_slack</title>
<polygon fill="lightgray" stroke="black" points="1253.19,-117 1184.69,-117 1184.69,-81 1253.19,-81 1253.19,-117"/>
<text xml:space="preserve" text-anchor="middle" x="1218.94" y="-101.5" font-family="Arial" font-size="10.00">notify_slack</text>
<text xml:space="preserve" text-anchor="middle" x="1218.94" y="-89.5" font-family="Arial" font-size="10.00">[tool]</text>
</g>
<!-- send_email&#45;&gt;notify_slack -->
<g id="edge15" class="edge">
<title>send_email&#45;&gt;notify_slack</title>
<path fill="none" stroke="blue" d="M1114.83,-78.4C1132.24,-81.88 1154.04,-86.23 1173.1,-90.04"/>
<polygon fill="blue" stroke="blue" points="1172.28,-93.45 1182.77,-91.97 1173.65,-86.58 1172.28,-93.45"/>
<text xml:space="preserve" text-anchor="middle" x="1147.94" y="-89.87" font-family="Arial" font-size="9.00">parallel</text>
</g>
<!-- call_webhook -->
<g id="node14" class="node">
<title>call_webhook</title>
<polygon fill="lightgray" stroke="black" points="1256.56,-63 1181.31,-63 1181.31,-27 1256.56,-27 1256.56,-63"/>
<text xml:space="preserve" text-anchor="middle" x="1218.94" y="-47.5" font-family="Arial" font-size="10.00">call_webhook</text>
<text xml:space="preserve" text-anchor="middle" x="1218.94" y="-35.5" font-family="Arial" font-size="10.00">[tool]</text>
</g>
<!-- send_email&#45;&gt;call_webhook -->
<g id="edge16" class="edge">
<title>send_email&#45;&gt;call_webhook</title>
<path fill="none" stroke="blue" d="M1114.83,-65.6C1131.25,-62.32 1151.58,-58.26 1169.84,-54.61"/>
<polygon fill="blue" stroke="blue" points="1170.28,-58.09 1179.4,-52.7 1168.91,-51.23 1170.28,-58.09"/>
<text xml:space="preserve" text-anchor="middle" x="1147.94" y="-63.66" font-family="Arial" font-size="9.00">parallel</text>
</g>
<!-- router_agent -->
<g id="node15" class="node">
<title>router_agent</title>
<path fill="lightcoral" stroke="black" d="M1351.56,-89C1351.56,-89 1305.56,-89 1305.56,-89 1299.56,-89 1293.56,-83 1293.56,-77 1293.56,-77 1293.56,-65 1293.56,-65 1293.56,-59 1299.56,-53 1305.56,-53 1305.56,-53 1351.56,-53 1351.56,-53 1357.56,-53 1363.56,-59 1363.56,-65 1363.56,-65 1363.56,-77 1363.56,-77 1363.56,-83 1357.56,-89 1351.56,-89"/>
<text xml:space="preserve" text-anchor="middle" x="1328.56" y="-73.5" font-family="Arial" font-size="10.00">router_agent</text>
<text xml:space="preserve" text-anchor="middle" x="1328.56" y="-61.5" font-family="Arial" font-size="10.00">[agent]</text>
</g>
<!-- notify_slack&#45;&gt;router_agent -->
<g id="edge17" class="edge">
<title>notify_slack&#45;&gt;router_agent</title>
<path fill="none" stroke="black" d="M1253.4,-90.29C1262.54,-87.92 1272.59,-85.3 1282.27,-82.78"/>
<polygon fill="black" stroke="black" points="1283.11,-86.18 1291.91,-80.27 1281.35,-79.41 1283.11,-86.18"/>
</g>
<!-- call_webhook&#45;&gt;router_agent -->
<g id="edge18" class="edge">
<title>call_webhook&#45;&gt;router_agent</title>
<path fill="none" stroke="black" d="M1256.97,-53.95C1265.18,-55.93 1273.96,-58.05 1282.44,-60.1"/>
<polygon fill="black" stroke="black" points="1281.34,-63.43 1291.88,-62.38 1282.98,-56.63 1281.34,-63.43"/>
</g>
<!-- post_route -->
<g id="node16" class="node">
<title>post_route</title>
<polygon fill="lightyellow" stroke="black" points="1462.31,-103 1400.56,-71 1462.31,-39 1524.06,-71 1462.31,-103"/>
<text xml:space="preserve" text-anchor="middle" x="1462.31" y="-73.5" font-family="Arial" font-size="10.00">post_route</text>
<text xml:space="preserve" text-anchor="middle" x="1462.31" y="-61.5" font-family="Arial" font-size="10.00">[condition]</text>
</g>
<!-- router_agent&#45;&gt;post_route -->
<g id="edge19" class="edge">
<title>router_agent&#45;&gt;post_route</title>
<path fill="none" stroke="black" d="M1363.83,-71C1371.47,-71 1379.84,-71 1388.38,-71"/>
<polygon fill="black" stroke="black" points="1388.13,-74.5 1398.13,-71 1388.13,-67.5 1388.13,-74.5"/>
</g>
<!-- archive_report -->
<g id="node17" class="node">
<title>archive_report</title>
<polygon fill="lightgray" stroke="black" points="1684.81,-116 1607.31,-116 1607.31,-80 1684.81,-80 1684.81,-116"/>
<text xml:space="preserve" text-anchor="middle" x="1646.06" y="-100.5" font-family="Arial" font-size="10.00">archive_report</text>
<text xml:space="preserve" text-anchor="middle" x="1646.06" y="-88.5" font-family="Arial" font-size="10.00">[tool]</text>
</g>
<!-- post_route&#45;&gt;archive_report -->
<g id="edge20" class="edge">
<title>post_route&#45;&gt;archive_report</title>
<path fill="none" stroke="black" stroke-dasharray="5,2" d="M1511.06,-78.09C1537.17,-81.97 1569.47,-86.77 1595.81,-90.68"/>
<polygon fill="black" stroke="black" points="1595.17,-94.13 1605.58,-92.13 1596.2,-87.2 1595.17,-94.13"/>
<text xml:space="preserve" text-anchor="middle" x="1564.56" y="-91.22" font-family="Arial" font-size="9.00">conditional</text>
</g>
<!-- escalate_ticket -->
<g id="node18" class="node">
<title>escalate_ticket</title>
<polygon fill="lightgray" stroke="black" points="1687.06,-62 1605.06,-62 1605.06,-26 1687.06,-26 1687.06,-62"/>
<text xml:space="preserve" text-anchor="middle" x="1646.06" y="-46.5" font-family="Arial" font-size="10.00">escalate_ticket</text>
<text xml:space="preserve" text-anchor="middle" x="1646.06" y="-34.5" font-family="Arial" font-size="10.00">[tool]</text>
</g>
<!-- post_route&#45;&gt;escalate_ticket -->
<g id="edge21" class="edge">
<title>post_route&#45;&gt;escalate_ticket</title>
<path fill="none" stroke="black" stroke-dasharray="5,2" d="M1511.06,-63.91C1536.44,-60.14 1567.66,-55.5 1593.58,-51.65"/>
<polygon fill="black" stroke="black" points="1593.83,-55.15 1603.2,-50.22 1592.8,-48.23 1593.83,-55.15"/>
<text xml:space="preserve" text-anchor="middle" x="1564.56" y="-61.07" font-family="Arial" font-size="9.00">conditional</text>
</g>
<!-- output -->
<g id="node19" class="node">
<title>output</title>
<ellipse fill="lightgreen" stroke="black" cx="1758.71" cy="-70" rx="34.65" ry="22.63"/>
<text xml:space="preserve" text-anchor="middle" x="1758.71" y="-72.5" font-family="Arial" font-size="10.00">output</text>
<text xml:space="preserve" text-anchor="middle" x="1758.71" y="-60.5" font-family="Arial" font-size="10.00">[output]</text>
</g>
<!-- archive_report&#45;&gt;output -->
<g id="edge22" class="edge">
<title>archive_report&#45;&gt;output</title>
<path fill="none" stroke="black" d="M1685.14,-88.36C1694.67,-85.95 1704.95,-83.35 1714.69,-80.88"/>
<polygon fill="black" stroke="black" points="1715.51,-84.29 1724.34,-78.44 1713.79,-77.5 1715.51,-84.29"/>
</g>
<!-- escalate_ticket&#45;&gt;output -->
<g id="edge23" class="edge">
<title>escalate_ticket&#45;&gt;output</title>
<path fill="none" stroke="black" d="M1687.32,-53.46C1696.18,-55.54 1705.61,-57.76 1714.58,-59.86"/>
<polygon fill="black" stroke="black" points="1713.62,-63.23 1724.15,-62.11 1715.22,-56.42 1713.62,-63.23"/>
</g>
</g>
</svg>
